
<svg width="0" height="0" class="hidden">
  <symbol xmlns="http://www.w3.org/2000/svg" viewBox="0 0 110 100" id="icon-door">
    <g clip-path="url(#clip0_1_54)">
      <path d="M99 88.8889V0H11V88.8889H0V100H110V88.8889H99ZM44 88.8889V11.1111H66V88.8889H44Z" fill="inherit"></path>
    </g>
  </symbol>
  <symbol xmlns="http://www.w3.org/2000/svg" viewBox="0 0 111 100" id="icon-electrical">
    <path d="M97.125 60.7542C97.125 57.8736 94.5821 55.5168 91.4741 55.5168H80.1723V65.9916H91.4741C94.5821 65.9916 97.125 63.6348 97.125 60.7542ZM91.4741 76.4665H80.1723V86.9413H91.4741C94.5821 86.9413 97.125 84.5845 97.125 81.7039C97.125 78.8233 94.5821 76.4665 91.4741 76.4665ZM46.2668 60.7542H34.965V81.7039H46.2668C46.2668 87.4651 51.3526 92.1788 57.5686 92.1788H74.5214V50.2793H57.5686C51.3526 50.2793 46.2668 54.993 46.2668 60.7542Z" fill="inherit"></path>
    <path d="M12.8883 53.8032C12.8883 47.7052 17.4393 42.7159 23.0017 42.7159H30.5867C40.346 42.7159 48.285 34.0125 48.285 23.3133C48.285 12.6141 40.346 3.91061 30.5867 3.91061H12.8883C10.1072 3.91061 7.83166 6.40524 7.83166 9.45423C7.83166 12.5032 10.1072 14.9979 12.8883 14.9979H30.5867C34.7837 14.9979 38.1717 18.7121 38.1717 23.3133C38.1717 27.9145 34.7837 31.6287 30.5867 31.6287H23.0017C11.8264 31.6287 2.77499 41.5518 2.77499 53.8032C2.77499 66.0546 11.8264 75.9777 23.0017 75.9777H33.115V64.8904H23.0017C17.4393 64.8904 12.8883 59.9012 12.8883 53.8032Z" fill="inherit"></path>
  </symbol>
  <symbol xmlns="http://www.w3.org/2000/svg" viewBox="0 0 123 100" id="icon-sofa">
    <g clip-path="url(#clip0_1_30)">
      <path d="M64.441 12.5C64.441 5.5625 69.4045 0 75.5951 0H95.1147C101.249 0 106.269 5.625 106.269 12.5V26C99.7995 28.5625 95.1147 35.4375 95.1147 43.5625V56.25H64.441V12.5ZM28.1902 43.5V56.25H58.8639V12.5C58.8639 5.5625 53.9004 0 47.7098 0H28.1902C22.0554 0 17.0361 5.625 17.0361 12.5V25.9375C23.5054 28.5 28.1902 35.4375 28.1902 43.5ZM109.95 31.4375C104.484 32.4375 100.692 38.25 100.692 44.5V62.5H22.6131V43.75C22.6131 40.4348 21.438 37.2554 19.3462 34.9112C17.2544 32.567 14.4173 31.25 11.459 31.25C8.50078 31.25 5.66369 32.567 3.57189 34.9112C1.48009 37.2554 0.304932 40.4348 0.304932 43.75V75C0.304932 81.875 5.32427 87.5 11.459 87.5V100H22.6131V87.5H100.692V100H111.846V87.5C117.981 87.5 123 81.875 123 75V43.75C123 36.1875 116.921 30.125 109.95 31.4375Z" fill="inherit"></path>
    </g>
    <defs>
      <clipPath id="clip0_1_30">
        <rect width="123" height="100" fill="inherit"></rect>
      </clipPath>
    </defs>
  </symbol>
  <symbol xmlns="http://www.w3.org/2000/svg" viewBox="0 0 116 100" id="icon-home">
    <g clip-path="url(#clip0_1_86)">
      <path d="M57.8698 -0.5L-0.260254 52.4412H17.1788V99.5H98.5609V52.4412H116L57.8698 -0.5ZM57.8698 31.8529C71.4723 31.8529 83.7958 37.3235 92.7479 46.2059L85.7723 53.1471C78.3317 45.7474 68.302 41.6243 57.8698 41.6765C46.9414 41.6765 37.0593 46.0294 29.9674 53.1471L22.9918 46.2059C32.3042 36.9726 44.8324 31.8171 57.8698 31.8529ZM57.8698 51.4412C66.008 51.4412 73.3906 54.7353 78.7967 60.0882L71.821 66.9706C68.096 63.2815 63.0818 61.2308 57.8698 61.2647C52.4056 61.2647 47.4645 63.4412 43.9186 66.9706L36.943 60.0882C42.527 54.5386 50.0431 51.4329 57.8698 51.4412ZM57.8698 71.0882C63.3341 71.0882 67.7519 75.4412 67.7519 80.8529C67.7519 86.2647 63.3341 90.6765 57.8698 90.6765C52.4056 90.6765 47.9877 86.2647 47.9877 80.8529C47.9877 75.4412 52.4056 71.0882 57.8698 71.0882Z" fill="inherit"></path>
    </g>
    <defs>
      <clipPath id="clip0_1_86">
        <rect width="116" height="100" fill="inherit"></rect>
      </clipPath>
    </defs>
  </symbol>
  <symbol xmlns="http://www.w3.org/2000/svg" viewBox="0 0 98 100" id="icon-window">
    <g clip-path="url(#clip0_1_76)">
      <path d="M19.6783 59.5H29.4685L44.1538 74.5H34.3636L19.6783 59.5ZM9.88811 9.5H14.7832V4.5C14.7832 3.17392 15.2989 1.90215 16.217 0.964466C17.135 0.0267841 18.3801 -0.5 19.6783 -0.5H39.2587C40.557 -0.5 41.8021 0.0267841 42.7201 0.964466C43.6381 1.90215 44.1538 3.17392 44.1538 4.5V9.5H53.9441V4.5C53.9441 3.17392 54.4598 1.90215 55.3778 0.964466C56.2958 0.0267841 57.5409 -0.5 58.8392 -0.5H78.4196C79.7178 -0.5 80.9629 0.0267841 81.8809 0.964466C82.799 1.90215 83.3147 3.17392 83.3147 4.5V9.5H88.2098C90.8063 9.5 93.2965 10.5536 95.1325 12.4289C96.9685 14.3043 98 16.8478 98 19.5V84.5C98 87.1522 96.9685 89.6957 95.1325 91.5711C93.2965 93.4464 90.8063 94.5 88.2098 94.5V99.5H73.5245V94.5H24.5734V99.5H9.88811V94.5C7.29158 94.5 4.80141 93.4464 2.96539 91.5711C1.12937 89.6957 0.0979004 87.1522 0.0979004 84.5V19.5C0.0979004 16.8478 1.12937 14.3043 2.96539 12.4289C4.80141 10.5536 7.29158 9.5 9.88811 9.5ZM78.4196 24.5C79.7178 24.5 80.9629 25.0268 81.8809 25.9645C82.799 26.9021 83.3147 28.1739 83.3147 29.5C83.3147 30.8261 82.799 32.0979 81.8809 33.0355C80.9629 33.9732 79.7178 34.5 78.4196 34.5C77.1213 34.5 75.8762 33.9732 74.9582 33.0355C74.0402 32.0979 73.5245 30.8261 73.5245 29.5C73.5245 28.1739 74.0402 26.9021 74.9582 25.9645C75.8762 25.0268 77.1213 24.5 78.4196 24.5ZM58.8392 24.5C60.1374 24.5 61.3825 25.0268 62.3005 25.9645C63.2185 26.9021 63.7343 28.1739 63.7343 29.5C63.7343 30.8261 63.2185 32.0979 62.3005 33.0355C61.3825 33.9732 60.1374 34.5 58.8392 34.5C57.5409 34.5 56.2958 33.9732 55.3778 33.0355C54.4598 32.0979 53.9441 30.8261 53.9441 29.5C53.9441 28.1739 54.4598 26.9021 55.3778 25.9645C56.2958 25.0268 57.5409 24.5 58.8392 24.5ZM88.2098 19.5H9.88811V39.5H88.2098V19.5ZM9.88811 84.5H88.2098V49.5H9.88811V84.5ZM19.6783 24.5C20.9766 24.5 22.2217 25.0268 23.1397 25.9645C24.0577 26.9021 24.5734 28.1739 24.5734 29.5C24.5734 30.8261 24.0577 32.0979 23.1397 33.0355C22.2217 33.9732 20.9766 34.5 19.6783 34.5C18.3801 34.5 17.135 33.9732 16.217 33.0355C15.2989 32.0979 14.7832 30.8261 14.7832 29.5C14.7832 28.1739 15.2989 26.9021 16.217 25.9645C17.135 25.0268 18.3801 24.5 19.6783 24.5ZM53.9441 59.5H63.7343L78.4196 74.5H68.6294L53.9441 59.5Z" fill="inherit"></path>
    </g>
    <defs>
      <clipPath id="clip0_1_76">
        <rect width="98" height="100" fill="inherit"></rect>
      </clipPath>
    </defs>
  </symbol>
  <symbol xmlns="http://www.w3.org/2000/svg" viewBox="0 0 94 100" id="icon-outdoor">
    <g clip-path="url(#clip0_1_97)">
      <g clip-path="url(#clip1_1_97)">
        <path d="M103.4 -10H-9.40002V110H103.4V-10Z" fill="white"></path>
        <path d="M103.4 -10H-9.40002V110H103.4V-10Z" fill="white"></path>
        <path d="M80.5022 48.4635H61.2224C60.3509 48.4635 59.4893 48.3698 58.6325 48.1927C57.7806 48.0104 56.9532 47.7448 56.1454 47.3906C55.3425 47.0312 54.5787 46.5989 53.8542 46.0833C53.1296 45.5729 52.4637 44.9844 51.8469 44.3333C51.23 43.6771 50.6817 42.9635 50.197 42.1927C49.7123 41.4219 49.3059 40.6094 48.973 39.7552C48.6401 38.901 48.3904 38.0208 48.2191 37.1094C48.0477 36.2031 47.9645 35.2864 47.9645 34.3594V13.8437C47.9645 12.9219 48.0477 12.0052 48.2191 11.0937C48.3904 10.1875 48.6401 9.30728 48.973 8.44791C49.3059 7.59374 49.7123 6.78124 50.197 6.01041C50.6817 5.23957 51.23 4.53124 51.8469 3.87499C52.4637 3.21874 53.1296 2.63541 53.8542 2.11978C54.5787 1.60416 55.3425 1.17186 56.1454 0.817698C56.9532 0.463531 57.7806 0.192697 58.6325 0.0156146C59.4893 -0.166677 60.3509 -0.255219 61.2224 -0.255219H80.5022C81.3736 -0.255219 82.2353 -0.166677 83.0872 0.0156146C83.944 0.192697 84.7714 0.463531 85.5743 0.817698C86.3821 1.17186 87.1458 1.60416 87.8655 2.11978C88.5901 2.63541 89.2608 3.21874 89.8777 3.87499C90.4897 4.53124 91.0429 5.23957 91.5227 6.01041C92.0074 6.78124 92.4186 7.59374 92.7516 8.44791C93.0845 9.30728 93.3342 10.1875 93.5055 11.0937C93.672 12.0052 93.7601 12.9219 93.7601 13.8437V34.3594C93.7601 35.2864 93.672 36.2031 93.5055 37.1094C93.3342 38.0208 93.0845 38.901 92.7516 39.7552C92.4186 40.6094 92.0074 41.4219 91.5227 42.1927C91.0429 42.9635 90.4897 43.6771 89.8777 44.3333C89.2608 44.9844 88.5901 45.5729 87.8655 46.0833C87.1458 46.5989 86.3821 47.0312 85.5743 47.3906C84.7714 47.7448 83.944 48.0104 83.0872 48.1927C82.2353 48.3698 81.3736 48.4635 80.5022 48.4635ZM61.2224 7.43749C60.8258 7.43749 60.4342 7.47916 60.0474 7.55728C59.6557 7.64061 59.2787 7.76041 58.9165 7.92186C58.5493 8.08332 58.2017 8.28124 57.8736 8.51562C57.5456 8.74999 57.2372 9.01561 56.9581 9.31249C56.6791 9.60936 56.4294 9.93228 56.2091 10.2864C55.9887 10.6354 55.8027 11.0052 55.6558 11.3906C55.5041 11.7812 55.3866 12.1823 55.3082 12.5937C55.2348 13.0104 55.1956 13.4271 55.1956 13.8437V34.3594C55.1956 34.7812 55.2348 35.1979 55.3082 35.6094C55.3866 36.0208 55.5041 36.4219 55.6558 36.8125C55.8027 37.2031 55.9887 37.5729 56.2091 37.9219C56.4294 38.2708 56.6791 38.5937 56.9581 38.8906C57.2372 39.1875 57.5456 39.4531 57.8736 39.6875C58.2017 39.9219 58.5493 40.1198 58.9165 40.2812C59.2787 40.4427 59.6557 40.5625 60.0474 40.6458C60.4342 40.7292 60.8258 40.7708 61.2224 40.7708H80.5022C80.8987 40.7708 81.2904 40.7292 81.6772 40.6458C82.064 40.5625 82.4409 40.4427 82.8081 40.2812C83.1753 40.1198 83.5229 39.9219 83.8509 39.6875C84.179 39.4531 84.4825 39.1875 84.7616 38.8906C85.0455 38.5937 85.2952 38.2708 85.5106 37.9219C85.7309 37.5729 85.917 37.2031 86.0687 36.8125C86.2205 36.4219 86.3331 36.0208 86.4115 35.6094C86.4898 35.1979 86.529 34.7812 86.529 34.3594V13.8437C86.529 13.4271 86.4898 13.0104 86.4115 12.5937C86.3331 12.1823 86.2205 11.7812 86.0687 11.3906C85.917 11.0052 85.7309 10.6354 85.5106 10.2864C85.2952 9.93228 85.0455 9.60936 84.7616 9.31249C84.4825 9.01561 84.179 8.74999 83.8509 8.51562C83.5229 8.28124 83.1753 8.08332 82.8081 7.92186C82.4409 7.76041 82.064 7.64061 81.6772 7.55728C81.2904 7.47916 80.8987 7.43749 80.5022 7.43749H61.2224Z" fill="inherit"></path>
        <path d="M27.4754 48.4635H13.0132C12.1466 48.4635 11.2849 48.3698 10.4282 48.1927C9.57628 48.0104 8.74888 47.7448 7.94107 47.3906C7.13815 47.0312 6.3744 46.5989 5.64982 46.0833C4.92524 45.5729 4.2594 44.9844 3.64253 44.3333C3.02565 43.6771 2.47732 42.9635 1.99263 42.1927C1.50794 41.4219 1.10159 40.6094 0.768673 39.7552C0.435756 38.901 0.181173 38.0208 0.0147149 37.1094C-0.156639 36.2031 -0.239868 35.2864 -0.239868 34.3594V18.9739C-0.239868 18.0469 -0.156639 17.1302 0.0147149 16.2239C0.181173 15.3125 0.435756 14.4323 0.768673 13.5781C1.10159 12.7239 1.50794 11.9114 1.99263 11.1406C2.47732 10.3698 3.02565 9.65624 3.64253 8.99999C4.2594 8.34895 4.92524 7.76041 5.64982 7.24999C6.3744 6.73436 7.13815 6.30207 7.94107 5.9427C8.74888 5.58853 9.57628 5.32291 10.4282 5.14061C11.2849 4.96353 12.1466 4.86978 13.0132 4.86978H27.4754C28.3469 4.86978 29.2086 4.96353 30.0653 5.14061C30.9172 5.32291 31.7446 5.58853 32.5475 5.9427C33.3553 6.30207 34.1191 6.73436 34.8437 7.24999C35.5634 7.76041 36.2341 8.34895 36.851 8.99999C37.4678 9.65624 38.0162 10.3698 38.5009 11.1406C38.9807 11.9114 39.3919 12.7239 39.7248 13.5781C40.0577 14.4323 40.3074 15.3125 40.4788 16.2239C40.6501 17.1302 40.7334 18.0469 40.7334 18.9739V34.3594C40.7334 35.2864 40.6501 36.2031 40.4788 37.1094C40.3074 38.0208 40.0577 38.901 39.7248 39.7552C39.3919 40.6094 38.9807 41.4219 38.5009 42.1927C38.0162 42.9635 37.4678 43.6771 36.851 44.3333C36.2341 44.9844 35.5634 45.5729 34.8437 46.0833C34.1191 46.5989 33.3553 47.0312 32.5475 47.3906C31.7446 47.7448 30.9172 48.0104 30.0653 48.1927C29.2086 48.3698 28.3469 48.4635 27.4754 48.4635ZM13.0132 12.5625C12.6215 12.5625 12.2298 12.6042 11.8382 12.6875C11.4514 12.7708 11.0744 12.8906 10.7072 13.0521C10.3449 13.2135 9.99732 13.4114 9.6693 13.6458C9.33638 13.8802 9.03284 14.1458 8.75378 14.4427C8.47472 14.7396 8.22503 15.0625 8.00472 15.4114C7.7844 15.7604 7.59836 16.1302 7.44659 16.5208C7.29482 16.9114 7.18222 17.3125 7.10388 17.7239C7.03044 18.1354 6.99128 18.5521 6.99128 18.9739V34.3594C6.99128 34.7812 7.03044 35.1979 7.10388 35.6094C7.18222 36.0208 7.29482 36.4219 7.44659 36.8125C7.59836 37.2031 7.7844 37.5729 8.00472 37.9219C8.22503 38.2708 8.47472 38.5937 8.75378 38.8906C9.03284 39.1875 9.33638 39.4531 9.6693 39.6875C9.99732 39.9219 10.3449 40.1198 10.7072 40.2812C11.0744 40.4427 11.4514 40.5625 11.8382 40.6458C12.2298 40.7292 12.6215 40.7708 13.0132 40.7708H27.4754C27.872 40.7708 28.2637 40.7292 28.6504 40.6458C29.0421 40.5625 29.4191 40.4427 29.7814 40.2812C30.1486 40.1198 30.4962 39.9219 30.8242 39.6875C31.1522 39.4531 31.4558 39.1875 31.7397 38.8906C32.0188 38.5937 32.2685 38.2708 32.4888 37.9219C32.7091 37.5729 32.8902 37.2031 33.042 36.8125C33.1938 36.4219 33.3113 36.0208 33.3847 35.6094C33.4631 35.1979 33.5022 34.7812 33.5022 34.3594V18.9739C33.5022 18.5521 33.4631 18.1354 33.3847 17.7239C33.3113 17.3125 33.1938 16.9114 33.042 16.5208C32.8902 16.1302 32.7091 15.7604 32.4888 15.4114C32.2685 15.0625 32.0188 14.7396 31.7397 14.4427C31.4558 14.1458 31.1522 13.8802 30.8242 13.6458C30.4962 13.4114 30.1486 13.2135 29.7814 13.0521C29.4191 12.8906 29.0421 12.7708 28.6504 12.6875C28.2637 12.6042 27.872 12.5625 27.4754 12.5625H13.0132Z" fill="inherit"></path>
        <path d="M75.6798 99.7448H61.2224C60.3509 99.7448 59.4893 99.651 58.6325 99.474C57.7806 99.2917 56.9532 99.026 56.1454 98.6719C55.3425 98.3177 54.5787 97.8802 53.8542 97.3646C53.1296 96.8542 52.4637 96.2656 51.8469 95.6146C51.23 94.9583 50.6817 94.2448 50.197 93.474C49.7123 92.7083 49.3059 91.8958 48.973 91.0365C48.6401 90.1823 48.3904 89.3021 48.2191 88.3906C48.0477 87.4844 47.9645 86.5677 47.9645 85.6406V70.2552C47.9645 69.3281 48.0477 68.4115 48.2191 67.5052C48.3904 66.599 48.6401 65.7135 48.973 64.8594C49.3059 64.0052 49.7123 63.1927 50.197 62.4219C50.6817 61.651 51.23 60.9375 51.8469 60.2865C52.4637 59.6302 53.1296 59.0469 53.8542 58.5312C54.5787 58.0156 55.3425 57.5833 56.1454 57.2292C56.9532 56.875 57.7806 56.6042 58.6325 56.4271C59.4893 56.2448 60.3509 56.1562 61.2224 56.1562H75.6798C76.5513 56.1562 77.4129 56.2448 78.2697 56.4271C79.1216 56.6042 79.949 56.875 80.7568 57.2292C81.5597 57.5833 82.3234 58.0156 83.048 58.5312C83.7726 59.0469 84.4384 59.6302 85.0553 60.2865C85.6722 60.9375 86.2205 61.651 86.7052 62.4219C87.1899 63.1927 87.5963 64.0052 87.9292 64.8594C88.2621 65.7135 88.5118 66.599 88.6831 67.5052C88.8545 68.4115 88.9377 69.3281 88.9377 70.2552V85.6406C88.9377 86.5677 88.8545 87.4844 88.6831 88.3906C88.5118 89.3021 88.2621 90.1823 87.9292 91.0365C87.5963 91.8958 87.1899 92.7083 86.7052 93.474C86.2205 94.2448 85.6722 94.9583 85.0553 95.6146C84.4384 96.2656 83.7726 96.8542 83.048 97.3646C82.3234 97.8802 81.5597 98.3177 80.7568 98.6719C79.949 99.026 79.1216 99.2917 78.2697 99.474C77.4129 99.651 76.5513 99.7448 75.6798 99.7448ZM61.2224 63.8438C60.8258 63.8438 60.4342 63.8854 60.0474 63.9688C59.6557 64.0521 59.2788 64.1719 58.9165 64.3333C58.5493 64.4948 58.2017 64.6927 57.8736 64.9271C57.5456 65.1615 57.2372 65.4271 56.9581 65.724C56.6791 66.0208 56.4294 66.3438 56.2091 66.6927C55.9887 67.0469 55.8027 67.4167 55.6558 67.8021C55.5041 68.1927 55.3866 68.5938 55.3082 69.0052C55.2348 69.4167 55.1956 69.8333 55.1956 70.2552V85.6406C55.1956 86.0625 55.2348 86.4792 55.3082 86.8906C55.3866 87.3021 55.5041 87.7031 55.6558 88.0938C55.8027 88.4844 55.9887 88.8542 56.2091 89.2031C56.4294 89.5521 56.6791 89.875 56.9581 90.1719C57.2372 90.474 57.5456 90.7396 57.8736 90.9688C58.2017 91.2031 58.5493 91.401 58.9165 91.5625C59.2788 91.724 59.6557 91.8438 60.0474 91.9271C60.4342 92.0104 60.8258 92.0521 61.2224 92.0521H75.6798C76.0764 92.0521 76.468 92.0104 76.8597 91.9271C77.2465 91.8438 77.6234 91.724 77.9857 91.5625C78.3529 91.401 78.7005 91.2031 79.0285 90.9688C79.3566 90.7396 79.665 90.474 79.9441 90.1719C80.2231 89.875 80.4728 89.5521 80.6931 89.2031C80.9134 88.8542 81.0995 88.4844 81.2513 88.0938C81.3981 87.7031 81.5156 87.3021 81.594 86.8906C81.6674 86.4792 81.7066 86.0625 81.7066 85.6406V70.2552C81.7066 69.8333 81.6674 69.4167 81.594 69.0052C81.5156 68.5938 81.3981 68.1927 81.2513 67.8021C81.0995 67.4167 80.9134 67.0469 80.6931 66.6927C80.4728 66.3438 80.2231 66.0208 79.9441 65.724C79.665 65.4271 79.3566 65.1615 79.0285 64.9271C78.7005 64.6927 78.3529 64.4948 77.9857 64.3333C77.6234 64.1719 77.2465 64.0521 76.8597 63.9688C76.468 63.8854 76.0764 63.8438 75.6798 63.8438H61.2224Z" fill="inherit"></path>
        <path d="M27.4754 99.7448H13.0132C12.1466 99.7448 11.2849 99.651 10.4282 99.474C9.57628 99.2917 8.74888 99.026 7.94107 98.6719C7.13815 98.3177 6.3744 97.8802 5.64982 97.3646C4.92524 96.8542 4.2594 96.2656 3.64253 95.6146C3.02565 94.9583 2.47732 94.2448 1.99263 93.474C1.50794 92.7083 1.10159 91.8958 0.768673 91.0365C0.435756 90.1823 0.181173 89.3021 0.0147149 88.3906C-0.156639 87.4844 -0.239868 86.5677 -0.239868 85.6406V70.2552C-0.239868 69.3281 -0.156639 68.4115 0.0147149 67.5052C0.181173 66.599 0.435756 65.7135 0.768673 64.8594C1.10159 64.0052 1.50794 63.1927 1.99263 62.4219C2.47732 61.651 3.02565 60.9375 3.64253 60.2865C4.2594 59.6302 4.92524 59.0469 5.64982 58.5312C6.3744 58.0156 7.13815 57.5833 7.94107 57.2292C8.74888 56.875 9.57628 56.6042 10.4282 56.4271C11.2849 56.2448 12.1466 56.1562 13.0132 56.1562H27.4754C28.3469 56.1562 29.2086 56.2448 30.0653 56.4271C30.9172 56.6042 31.7446 56.875 32.5475 57.2292C33.3553 57.5833 34.1191 58.0156 34.8437 58.5312C35.5634 59.0469 36.2341 59.6302 36.851 60.2865C37.4678 60.9375 38.0162 61.651 38.5009 62.4219C38.9807 63.1927 39.3919 64.0052 39.7248 64.8594C40.0577 65.7135 40.3074 66.599 40.4788 67.5052C40.6501 68.4115 40.7334 69.3281 40.7334 70.2552V85.6406C40.7334 86.5677 40.6501 87.4844 40.4788 88.3906C40.3074 89.3021 40.0577 90.1823 39.7248 91.0365C39.3919 91.8958 38.9807 92.7083 38.5009 93.474C38.0162 94.2448 37.4678 94.9583 36.851 95.6146C36.2341 96.2656 35.5634 96.8542 34.8437 97.3646C34.1191 97.8802 33.3553 98.3177 32.5475 98.6719C31.7446 99.026 30.9172 99.2917 30.0653 99.474C29.2086 99.651 28.3469 99.7448 27.4754 99.7448ZM13.0132 63.8438C12.6215 63.8438 12.2298 63.8854 11.8382 63.9688C11.4514 64.0521 11.0744 64.1719 10.7072 64.3333C10.3449 64.4948 9.99732 64.6927 9.6693 64.9271C9.33638 65.1615 9.03284 65.4271 8.75378 65.724C8.47472 66.0208 8.22503 66.3438 8.00472 66.6927C7.7844 67.0469 7.59836 67.4167 7.44659 67.8021C7.29482 68.1927 7.18222 68.5938 7.10388 69.0052C7.03044 69.4167 6.99128 69.8333 6.99128 70.2552V85.6406C6.99128 86.0625 7.03044 86.4792 7.10388 86.8906C7.18222 87.3021 7.29482 87.7031 7.44659 88.0938C7.59836 88.4844 7.7844 88.8542 8.00472 89.2031C8.22503 89.5521 8.47472 89.875 8.75378 90.1719C9.03284 90.474 9.33638 90.7396 9.6693 90.9688C9.99732 91.2031 10.3449 91.401 10.7072 91.5625C11.0744 91.724 11.4514 91.8438 11.8382 91.9271C12.2298 92.0104 12.6215 92.0521 13.0132 92.0521H27.4754C27.872 92.0521 28.2637 92.0104 28.6504 91.9271C29.0421 91.8438 29.4191 91.724 29.7814 91.5625C30.1486 91.401 30.4962 91.2031 30.8242 90.9688C31.1522 90.7396 31.4558 90.474 31.7397 90.1719C32.0188 89.875 32.2685 89.5521 32.4888 89.2031C32.7091 88.8542 32.8902 88.4844 33.042 88.0938C33.1938 87.7031 33.3113 87.3021 33.3847 86.8906C33.4631 86.4792 33.5022 86.0625 33.5022 85.6406V70.2552C33.5022 69.8333 33.4631 69.4167 33.3847 69.0052C33.3113 68.5938 33.1938 68.1927 33.042 67.8021C32.8902 67.4167 32.7091 67.0469 32.4888 66.6927C32.2685 66.3438 32.0188 66.0208 31.7397 65.724C31.4558 65.4271 31.1522 65.1615 30.8242 64.9271C30.4962 64.6927 30.1486 64.4948 29.7814 64.3333C29.4191 64.1719 29.0421 64.0521 28.6504 63.9688C28.2637 63.8854 27.872 63.8438 27.4754 63.8438H13.0132Z" fill="inherit"></path>
      </g>
    </g>
    <defs>
      <clipPath id="clip0_1_97">
        <rect width="94" height="100" fill="inherit"></rect>
      </clipPath>
      <clipPath id="clip1_1_97">
        <rect width="94" height="100" fill="inherit"></rect>
      </clipPath>
    </defs>
  </symbol>
  <symbol xmlns="http://www.w3.org/2000/svg" viewBox="0 0 91 100" id="icon-paint">
    <g clip-path="url(#clip0_1_17)">
      <path d="M80.8449 0H24.9922C19.3917 0 14.8372 4.6936 14.8372 10.4651V26.1628C14.8372 31.9343 19.3917 36.6279 24.9922 36.6279H80.8449C86.4454 36.6279 91 31.9343 91 26.1628V10.4651C91 4.6936 86.4454 0 80.8449 0Z" fill="inherit"></path>
      <path d="M54.6627 65.5267V55.6771C54.6627 50.2451 50.2299 45.8276 44.779 45.8276H10.186V16.2791C4.7351 16.2791 0.302246 20.6966 0.302246 26.1286V45.8276C0.302246 51.2596 4.7351 55.6771 10.186 55.6771H44.779V65.5267C43.4683 65.5267 42.2113 66.0455 41.2846 66.9691C40.3578 67.8927 39.8371 69.1453 39.8371 70.4514V95.0752C39.8371 96.3814 40.3578 97.634 41.2846 98.5576C42.2113 99.4811 43.4683 100 44.779 100H54.6627C55.9734 100 57.2304 99.4811 58.1571 98.5576C59.0839 97.634 59.6046 96.3814 59.6046 95.0752V70.4514C59.6046 69.1453 59.0839 67.8927 58.1571 66.9691C57.2304 66.0455 55.9734 65.5267 54.6627 65.5267Z" fill="inherit"></path>
    </g>
    <defs>
      <clipPath id="clip0_1_17">
        <rect width="91" height="100" fill="inherit"></rect>
      </clipPath>
    </defs>
  </symbol>
  <symbol xmlns="http://www.w3.org/2000/svg" viewBox="0 0 117 100" id="icon-house">
    <g clip-path="url(#clip0_1_65)">
      <path d="M0 0V100H117V0H0ZM8.97634 9.34625H108.024V90.6539H8.97634V9.34625ZM29.3928 21.0838C26.5995 21.0838 24.2491 22.0585 22.3446 24.0091C20.44 25.9596 19.4881 28.3665 19.4881 31.2271C19.4881 33.9579 20.44 36.2971 22.3446 38.2477C24.2491 40.1982 26.5995 41.173 29.3928 41.173C32.0593 41.173 34.3437 40.1981 36.2484 38.2477C38.153 36.2972 39.1048 33.9578 39.1048 31.2271C39.1048 28.3665 38.1529 25.9596 36.2484 24.0091C34.3438 22.0585 32.0593 21.0838 29.3928 21.0838ZM71.4825 26.0275L49.0094 60.9404L37.0766 50.7971L19.4881 74.1992V81.0295H97.5119V53.5908L71.4825 26.0275Z" fill="inherit"></path>
    </g>
    <defs>
      <clipPath id="clip0_1_65">
        <rect width="117" height="100" fill="inherit"></rect>
      </clipPath>
    </defs>
  </symbol>
  <symbol xmlns="http://www.w3.org/2000/svg" viewBox="0 0 94 100" id="icon-tap">
    <g clip-path="url(#clip0_1_5)">
      <path d="M43.5614 0C42.7207 0 41.8801 0.840336 40.1988 2.52101V9.2437H30.0003C26.7485 5.88235 26.7485 5.88235 23.3859 9.2437C20.0233 12.605 20.0233 12.605 23.3859 15.9664C26.7485 19.3277 26.7485 19.3277 29.8526 15.9664H40.1988V22.6891H46.9239V15.9664H57.1594C60.4806 19.3277 60.4799 19.3277 63.8425 15.9664C67.2051 12.605 67.2051 12.605 63.8425 9.2437C60.4799 5.88235 60.4806 5.88235 57.0116 9.2437H46.9239V2.52101C45.2426 0.840336 44.402 0 43.5614 0ZM-0.1521 16.3866V70.1681H6.57305V16.3866H-0.1521ZM13.2982 26.4706L9.93562 23.1092V63.4454L13.2982 60.084V26.4706ZM43.5614 26.0504C36.8362 26.0504 33.4001 26.0504 33.2151 32.7731H16.6608V52.9412H30.2424C33.4736 56.3025 36.8362 59.6639 43.5614 59.6639C50.2865 59.6639 53.6491 56.3025 57.0116 52.9412C70.4619 52.9412 70.4619 52.9412 70.4619 59.6639V66.3866H90.6374V52.9412C90.6374 39.4958 83.9122 32.7731 70.4619 32.7731H53.6491C53.7226 26.0504 50.2865 26.0504 43.5614 26.0504ZM67.0994 69.7479V73.1092H93.9999V69.7479H67.0994ZM80.5497 76.4706C80.5497 76.4706 72.3906 87.3235 73.8245 93.6975C74.7114 97.6387 76.5083 100 80.5497 100C84.591 100 86.3879 97.6387 87.2748 93.6975C88.7087 87.3235 80.5497 76.4706 80.5497 76.4706Z" fill="inherit"></path>
    </g>
    <defs>
      <clipPath id="clip0_1_5">
        <rect width="94" height="100" fill="inherit"></rect>
      </clipPath>
    </defs>
  </symbol>
</svg>
